<svg xmlns="http://www.w3.org/2000/svg" width="640" height="360" viewBox="0 0 640 360" role="img" aria-labelledby="title desc">
  <title id="title">Jogo do gato</title>
  <desc id="desc">Ilustracao colorida com gatinhos em estilo infantil.</desc>

  <defs>
    <linearGradient id="bg" x1="0" y1="0" x2="1" y2="1">
      <stop offset="0%" stop-color="#c6f1ff" />
      <stop offset="100%" stop-color="#fff2ce" />
    </linearGradient>
  </defs>

  <rect width="640" height="360" fill="url(#bg)" />
  <rect y="255" width="640" height="105" fill="#87d17e" />

  <text x="320" y="52" text-anchor="middle" font-family="Verdana, sans-serif" font-size="34" font-weight="700" fill="#0e5260">
    Jogo do Gato
  </text>

  <circle cx="180" cy="198" r="54" fill="#f4a261" />
  <polygon points="145,155 165,120 185,160" fill="#f4a261" />
  <polygon points="175,160 195,120 215,155" fill="#f4a261" />
  <circle cx="166" cy="196" r="5" fill="#2f2f2f" />
  <circle cx="194" cy="196" r="5" fill="#2f2f2f" />
  <circle cx="180" cy="208" r="6" fill="#ffb4a2" />

  <circle cx="430" cy="198" r="54" fill="#d0d0d0" />
  <polygon points="395,155 415,120 435,160" fill="#d0d0d0" />
  <polygon points="425,160 445,120 465,155" fill="#d0d0d0" />
  <circle cx="416" cy="196" r="5" fill="#2f2f2f" />
  <circle cx="444" cy="196" r="5" fill="#2f2f2f" />
  <circle cx="430" cy="208" r="6" fill="#ffb4a2" />

  <line x1="160" y1="212" x2="138" y2="206" stroke="#2f2f2f" stroke-width="2" />
  <line x1="160" y1="218" x2="138" y2="220" stroke="#2f2f2f" stroke-width="2" />
  <line x1="200" y1="212" x2="222" y2="206" stroke="#2f2f2f" stroke-width="2" />
  <line x1="200" y1="218" x2="222" y2="220" stroke="#2f2f2f" stroke-width="2" />

  <line x1="410" y1="212" x2="388" y2="206" stroke="#2f2f2f" stroke-width="2" />
  <line x1="410" y1="218" x2="388" y2="220" stroke="#2f2f2f" stroke-width="2" />
  <line x1="450" y1="212" x2="472" y2="206" stroke="#2f2f2f" stroke-width="2" />
  <line x1="450" y1="218" x2="472" y2="220" stroke="#2f2f2f" stroke-width="2" />
</svg>
