<svg xmlns="http://www.w3.org/2000/svg" width="640" height="360" viewBox="0 0 640 360" role="img" aria-labelledby="title desc">
  <title id="title">Jogo da princesa</title>
  <desc id="desc">Ilustracao com castelo e princesa em estilo infantil.</desc>

  <defs>
    <linearGradient id="sky" x1="0" y1="0" x2="0" y2="1">
      <stop offset="0%" stop-color="#d3e8ff" />
      <stop offset="100%" stop-color="#ffe6f8" />
    </linearGradient>
  </defs>

  <rect width="640" height="360" fill="url(#sky)" />
  <rect y="260" width="640" height="100" fill="#8fdc91" />

  <text x="320" y="52" text-anchor="middle" font-family="Verdana, sans-serif" font-size="34" font-weight="700" fill="#0e5260">
    Jogo da Princesa
  </text>

  <rect x="230" y="120" width="180" height="140" rx="10" fill="#ffd0ea" />
  <rect x="210" y="150" width="28" height="110" fill="#f8b4d7" />
  <rect x="402" y="150" width="28" height="110" fill="#f8b4d7" />
  <polygon points="230,120 320,70 410,120" fill="#f29cc8" />
  <rect x="300" y="188" width="40" height="72" rx="8" fill="#f08cbf" />
  <circle cx="320" cy="100" r="8" fill="#ffd166" />

  <circle cx="120" cy="210" r="34" fill="#ffd9b3" />
  <rect x="98" y="238" width="44" height="46" rx="18" fill="#f5a0cb" />
  <polygon points="120,164 102,188 138,188" fill="#ffd166" />
  <circle cx="110" cy="207" r="3" fill="#2f2f2f" />
  <circle cx="130" cy="207" r="3" fill="#2f2f2f" />
  <path d="M112 220 Q120 226 128 220" stroke="#2f2f2f" stroke-width="2" fill="none" stroke-linecap="round" />
</svg>
